<?xml version="1.0" encoding="UTF-8"?>
<svg xmlns="http://www.w3.org/2000/svg" viewBox="0 0 192 192" width="2400" height="2400"><path fill="#020204" d="M157.767 52H160v-8h-48.527C109.69 37.11 103.44 32 96 32s-13.69 5.11-15.473 12H32v8h2.233L16 103.31v.69c0 13.233 10.767 24 24 24s24-10.767 24-24v-.693L45.676 52h34.85A16.032 16.032 0 0 0 92 63.473V152H52v8h88v-8h-40V63.473A16.032 16.032 0 0 0 111.473 52h34.851L128 103.307V104c0 13.233 10.767 24 24 24s24-10.767 24-24v-.69L157.767 52zM39.959 59.779L54.324 100H25.667l14.292-40.221zM40 120c-7.44 0-13.701-5.109-15.483-12h30.966c-1.782 6.891-8.043 12-15.483 12zm56-64c-4.411 0-8-3.589-8-8s3.589-8 8-8 8 3.589 8 8-3.589 8-8 8zm56.04 3.779L166.334 100h-28.657l14.365-40.221zM152 120c-7.44 0-13.701-5.109-15.483-12h30.966c-1.782 6.891-8.043 12-15.483 12z"/></svg>
