<?xml version="1.0" encoding="UTF-8"?>
<svg xmlns="http://www.w3.org/2000/svg" viewBox="0 0 192 192" width="2400" height="2400"><path d="M60 48h72v57.841a39.705 39.705 0 0 1 8-1.64V40h-20V16H72v24H52v136h52v-8H60V48zm20-24h32v16H80V24zm88 120h8c0 17.944-13.973 32-31.812 32-9.418 0-18.212-4.115-24.188-11.041V176h-8v-24h24v8h-9.7a23.935 23.935 0 0 0 17.888 8C157.541 168 168 157.458 168 144zm8-32v24h-24v-8h10.009c-4.497-5.025-10.999-8-18.009-8-13.458 0-24 10.542-24 24h-8c0-17.944 14.056-32 32-32 9.338 0 18.006 3.98 24 10.703V112h8z"/></svg>
