<?xml version="1.0" encoding="UTF-8"?>
<svg xmlns="http://www.w3.org/2000/svg" viewBox="0 0 192 192" width="2400" height="2400"><path d="M176 52h-26.892l-20-12h-1.635C125.69 33.11 119.44 28 112 28H52c-8.323 0-14.571 6.011-15.944 15.325-1.566 7.929-13.341 67.732-15.659 84.736C17.927 128.363 16 130.45 16 133v31c0 6.617 5.383 12 12 12h44c6.617 0 12-5.383 12-12v-31c0-2.757-2.243-5-5-5H64.488l5.077-44H76v12h8V84h28c7.439 0 13.69-5.11 15.473-12h1.635l20-12H176v-8zM76 164c0 2.206-1.794 4-4 4H28c-2.206 0-4-1.794-4-4v-28h52v28zm36-88H62.435l-6 52H28.454c1.99-13.617 10.102-56.049 15.47-83.225l.036-.21C44.247 42.557 45.675 36 52 36h60c4.411 0 8 3.589 8 8v24c0 4.411-3.589 8-8 8zm16-12.665v-14.67L140.226 56 128 63.335z"/></svg>
