<?xml version="1.0" encoding="UTF-8"?>
<svg xmlns="http://www.w3.org/2000/svg" viewBox="0 0 192 192" width="2400" height="2400"><path d="M136 56H56c-22.056 0-40 17.944-40 40s17.944 40 40 40h80c22.056 0 40-17.944 40-40s-17.944-40-40-40zM24 96c0-17.645 14.355-32 32-32s32 14.355 32 32-14.355 32-32 32-32-14.355-32-32zm55.972 32C89.697 120.696 96 109.07 96 96a39.76 39.76 0 0 0-3.35-16H128a4 4 0 0 0 0-8H88l-.02.002A40.345 40.345 0 0 0 79.972 64H136c17.645 0 32 14.355 32 32 0 5.854-1.587 11.34-4.343 16.066A3.983 3.983 0 0 0 163 112h-35a4 4 0 0 0 0 8h29.132c-5.641 4.973-13.038 8-21.132 8H79.972zM76 96c0 11.028-8.972 20-20 20a4 4 0 0 1 0-8c6.617 0 12-5.383 12-12a4 4 0 0 1 8 0zm-32 0c0 1.558.293 3.071.871 4.5a4 4 0 0 1-7.416 3A19.903 19.903 0 0 1 36 96c0-11.028 8.972-20 20-20a4 4 0 0 1 0 8c-6.617 0-12 5.383-12 12zm64 0a4 4 0 0 1 4-4h47a4 4 0 0 1 0 8h-47a4 4 0 0 1-4-4zm8 20a4 4 0 0 1-4 4h-8a4 4 0 0 1 0-8h8a4 4 0 0 1 4 4z"/></svg>
