<?xml version="1.0" encoding="UTF-8"?>
<svg xmlns="http://www.w3.org/2000/svg" viewBox="0 0 192 192" width="2400" height="2400"><path d="M44.94 124.004l-16.13 52h-8.38l16.139-52h8.37zm8.49 0h-8.37l16.13 52h8.379l-16.14-52zm85.139 0l-16.14 52h8.38l16.13-52h-8.37zm24.62 52l-16.13-52h8.37l16.14 52h-8.38zm8.38 0h-8.38m-43.19-68v-92h-8v92H89.03l-6.13-5.09 9.2-7.69a6.237 6.237 0 0 0 2.24-4.81 6.282 6.282 0 0 0-2.27-4.81l-9.17-7.6 9.26-7.74a6.324 6.324 0 0 0 2.19-4.78 6.235 6.235 0 0 0-2.26-4.79l-9.2-7.65 9.21-7.67a6.286 6.286 0 0 0 2.22-4.78c0-1.86-.82-3.61-2.25-4.81l-10.44-8.7 5.69-11.08h-8.99l-6.73 13.12 13.74 11.46-14.96 12.46 14.99 12.47-14.98 12.52 14.97 12.4-14.95 12.49 6.11 5.08H20v8h152v-8h-52zm-8 32H94.35a6.21 6.21 0 0 0-2.24-4.51l-9.19-7.64 4.63-3.85h-12.5l-4.63 3.86 14.96 12.44-9.24 7.7H120v-24h-8v16zm-67.06-16h.12l-.06-.18-.06.18zm102 0h.12l-.06-.18-.06.18z"/></svg>
